# AST/ASF file generated using VICON BodyLanguage
# -----------------------------------------------
:version 1.10
:name VICON
:units
  mass 1.0
  length 0.45
  angle deg
:documentation
   .ast/.asf automatically generated from VICON data using
   VICON BodyBuilder and BodyLanguage model FoxedUp or BRILLIANT.MOD
:root
   order TX TY TZ RX RY RZ
   axis XYZ
   position 0 0 0  
   orientation 0 0 0 
:bonedata
  begin
     id 1 
     name lhipjoint
     direction 0.611804 -0.747784 0.257906 
     length 2.29243 
     axis 0 0 0  XYZ
  end
  begin
     id 2 
     name lfemur
     direction 0.34202 -0.939693 0  
     length 7.31159  
     axis 0 0 20  XYZ
    dof rx ry rz
    limits (-160.0 20.0)
           (-70.0 70.0)
           (-60.0 70.0)
  end
  begin
     id 3 
     name ltibia
     direction 0.34202 -0.939693 0   
     length 7.33391   
     axis 0 0 20   XYZ
    dof rx
    limits (-10.0 170.0)
  end
  begin
     id 4 
     name lfoot
     direction 0.122263 -0.335914 0.933924   
     length 1.76083   
     axis -90 7.62852e-016 20   XYZ
    dof rx rz
    limits (-45.0 90.0)
           (-70.0 20.0)
  end
  begin
     id 5 
     name ltoes
     direction 1.53533e-011 -4.2177e-011 1   
     length 0.879206   
     axis -90 7.62852e-016 20   XYZ
    dof rx
    limits (-90.0 20.0)
  end
  begin
     id 6 
     name rhipjoint
     direction -0.646469 -0.721248 0.248754   
     length 2.37677  
     axis 0 0 0  XYZ 
  end
  begin
     id 7 
     name rfemur
     direction -0.34202 -0.939693 0   
     length 7.18623   
     axis 0 0 -20   XYZ
    dof rx ry rz
    limits (-160.0 20.0)
           (-70.0 70.0)
           (-70.0 60.0)
  end
  begin
     id 8 
     name rtibia
     direction -0.34202 -0.939693 0   
     length 7.36567   
     axis 0 0 -20   XYZ
    dof rx
    limits (-10.0 170.0)
 end
 begin
     id 9 
     name rfoot
     direction -0.126681 -0.348054 0.928876   
     length 1.71902  
     axis -90 -7.62852e-016 -20   XYZ
    dof rx rz
    limits (-45.0 90.0)
           (-20.0 70.0)
  end
  begin
     id 10 
     name rtoes
     direction -1.53551e-011 -4.21898e-011 1   
     length 0.857792   
     axis -90 -7.62852e-016 -20   XYZ
    dof rx
    limits (-90.0 20.0)
  end
  begin
     id 11 
     name lowerback
     direction 0.0106509 0.999778 0.0181844   
     length 2.07668   
     axis 0 0 0   XYZ
    dof rx ry rz
    limits (-20.0 45.0)
           (-30.0 30.0)
           (-30.0 30.0)
  end
  begin
     id 12 
     name upperback
     direction -0.00456018 0.999989 -0.000590935   
     length 2.08011   
     axis 0 0 0   XYZ
    dof rx ry rz
    limits (-20.0 45.0)
           (-30.0 30.0)
           (-30.0 30.0)
  end
  begin
     id 13 
     name thorax
     direction -0.00910382 0.999916 -0.00923765   
     length 2.07397   
     axis 0 0 0   XYZ
    dof rx ry rz
    limits (-20.0 45.0)
           (-30.0 30.0)
           (-30.0 30.0)
  end
  begin
     id 14 
     name lowerneck
     direction 0.00171967 0.99778 0.0665733   
     length 1.67556   
     axis 0 0 0   XYZ
    dof rx ry rz
    limits (-20.0 45.0)
           (-30.0 30.0)
           (-30.0 30.0)
  end
  begin
     id 15 
     name upperneck
     direction -0.0143166 0.991302 -0.130828   
     length 1.68462   
     axis 0 0 0   XYZ
    dof rx ry rz
    limits (-20.0 45.0)
           (-30.0 30.0)
           (-30.0 30.0)
  end
  begin
     id 16
     name head
     direction -0.00606378 0.998665 -0.0512995  
     length 1.69269  
     axis 0 0 0   XYZ
    dof rx ry rz
    limits (-20.0 45.0)
           (-30.0 30.0)
           (-30.0 30.0)
  end
  begin
     id 17 
     name lclavicle
     direction 0.9638 0.179341 0.197297  
     length 4.12888  
     axis 0 0 0   XYZ
    dof ry rz
    limits (-20.0 10.0)
           (0.0 20.0)
  end
  begin
     id 18 
     name lhumerus
     direction 1 -4.48972e-011 -2.47351e-027   
     length 5.01834   
     axis -180 -30 -90   XYZ
    dof rx ry rz
    limits (-60.0 90.0)
           (-90.0 90.0)
           (-90.0 90.0)
  end
  begin
     id 19
     name lradius
     direction 1 -4.48965e-011 1.51591e-026   
     length 3.4869   
     axis -180 -30 -90   XYZ
    dof rx
    limits (-10.0 170.0)
  end
  begin
     id 20
     name lwrist
     direction 1 -4.48957e-011 2.70032e-026   
     length 1.74345   
     axis -1.81515e-014 90 90   XYZ
    dof ry
    limits (-180.0 0.0)
 end
  begin
     id 21 
     name lhand
     direction 1 -4.48951e-011 5.40064e-026   
     length 0.76799   
     axis -3.44607e-014 90 90   XYZ
    dof rx rz
    limits (-90.0 90.0)
           (-45.0 45.0)
  end
  begin
     id 22 
     name lfingers
     direction 1 -4.48971e-011 1.08013e-025   
     length 0.619174   
     axis -6.89214e-014 90 90   XYZ
    dof rx
    limits (0.0 90.0)
  end
  begin
     id 23
     name lthumb
     direction 0.707107 -6.34931e-011 0.707107   
     length 0.889013   
     axis -90 45 2.85299e-015   XYZ
    dof rx rz
    limits (-45.0 45.0)
           (-45.0 45.0)
  end
  begin
     id 24 
     name rclavicle
     direction -0.961409 0.252588 0.109054   
     length 4.04305  
     axis 0 0 0   XYZ 
    dof ry rz
    limits (-10.0 20.0)
           (-20.0 0.0)
  end
  begin
     id 25 
     name rhumerus
     direction -1 -4.4897e-011 1.33872e-017  
     length 4.70164   
     axis -180 30 90   XYZ
    dof rx ry rz
    limits (-90.0 60.0)
           (-90.0 90.0)
           (-90.0 90.0)
  end
  begin
     id 26 
     name rradius
     direction -1 -4.48954e-011 1.83844e-026   
     length 3.49911   
     axis -180 30 90   XYZ
    dof rx
    limits (-10.0 170.0)
  end
  begin
     id 27 
     name rwrist
     direction -1 -4.49008e-011 2.70032e-026   
     length 1.74955   
     axis -1.81515e-014 -90 -90   XYZ
    dof ry
    limits (-180.0 0.0)
  end
  begin
     id 28
     name rhand
     direction -1 -4.48916e-011 5.40064e-026   
     length 0.739335   
     axis -3.44607e-014 -90 -90   XYZ
    dof rx rz
    limits (-90.0 90.0)
           (-45.0 45.0)
  end
  begin
     id 29
     name rfingers
     direction -1 -4.48987e-011 1.08013e-025   
     length 0.596071   
     axis -6.89214e-014 -90 -90   XYZ
    dof rx
    limits (0.0 90.0)
  end
  begin
     id 30
     name rthumb
     direction -0.707107 -6.34935e-011 0.707107   
     length 0.855843   
     axis -90 -45 -2.85299e-015   XYZ
    dof rx rz
    limits (-45.0 45.0)
           (-45.0 45.0)
  end
:hierarchy
  begin
    root lhipjoint rhipjoint lowerback
    lhipjoint lfemur
    lfemur ltibia
    ltibia lfoot
    lfoot ltoes
    rhipjoint rfemur
    rfemur rtibia
    rtibia rfoot
    rfoot rtoes
    lowerback upperback
    upperback thorax
    thorax lowerneck lclavicle rclavicle
    lowerneck upperneck
    upperneck head
    lclavicle lhumerus
    lhumerus lradius
    lradius lwrist
    lwrist lhand lthumb
    lhand lfingers
    rclavicle rhumerus
    rhumerus rradius
    rradius rwrist
    rwrist rhand rthumb
    rhand rfingers
  end

#!OML:ASF I:\salsa\salsa 7_09\Patient 1\Session 1\dancermale.ASF
:FULLY-SPECIFIED
:DEGREES
1271
root 6.82794 16.9578 -3.16473 -149.203 255.933 -564.442
lowerback -1.38467 2.66783 3.13844
upperback -0.0664913 3.46572 2.17586
thorax 0.758888 1.72822 0.54658
lowerneck -7.29928 4.11009 2.85183
upperneck 17.9676 6.41955 -7.78306
head 7.03093 2.54213 -2.46368
rclavicle -3.38928e-014 -3.75703e-014
rhumerus 7.9469 19.4502 -73.7189
rradius 48.7287
rwrist -29.4863
rhand 51.2759 16.323
rfingers 7.12502
rthumb 70.7636 23.1925
lclavicle -3.38928e-014 -3.75703e-014
lhumerus 15.3255 13.7002 78.7851
lradius 53.7694
lwrist 65.4228
lhand -17.1192 44.864
lfingers 7.12502
lthumb 9.12033 74.6468
rfemur -16.8771 -2.68013 24.8088
rtibia 34.5313
rfoot -22.0753 -16.464
rtoes -0.184765
lfemur -39.0781 -0.254245 -10.9898
ltibia 33.437
lfoot 2.22051 4.46207
ltoes 5.66232
1272
root 6.70179 16.9451 -3.05772 -151.145 257.024 -562.483
lowerback -1.58352 2.80699 2.39797
upperback -0.103681 3.66185 2.05306
thorax 0.796224 1.82621 0.845417
lowerneck -7.28331 4.14699 2.59019
upperneck 18.0616 6.48935 -7.66752
head 7.0507 2.5638 -2.37729
rclavicle -1.66979e-014 -5.96354e-015
rhumerus 7.55117 16.7945 -75.4688
rradius 48.4182
rwrist -26.5645
rhand 52.6119 17.8678
rfingers 7.12502
rthumb 71.5597 27.8834
lclavicle -1.66979e-014 -5.96354e-015
lhumerus 15.6266 13.9638 78.5036
lradius 54.399
lwrist 65.5155
lhand -16.3558 44.2224
lfingers 7.12502
lthumb 9.85688 73.9717
rfemur -17.1093 -2.49795 23.6256
rtibia 36.0527
rfoot -22.3059 -16.8015
rtoes 0.822858
lfemur -37.8474 -0.936511 -11.7517
ltibia 32.5613
lfoot 0.545287 4.42927
ltoes 6.02809e-005
1273
root 6.59848 16.9384 -2.95072 -153.468 257.917 -560.032
lowerback -1.57704 2.92083 1.85695
upperback -0.315608 3.83545 1.81783
thorax 0.556462 1.9121 0.901341
lowerneck -7.03726 4.13571 2.58893
upperneck 18.0944 6.46814 -7.64884
head 7.01536 2.55803 -2.37794
rclavicle -4.11236e-014 5.76476e-015
rhumerus 7.34266 19.6545 -73.5223
rradius 49.8466
rwrist -30.5827
rhand 49.8665 16.0059
rfingers 7.12502
rthumb 69.864 19.8418
lclavicle -4.11236e-014 5.76476e-015
lhumerus 15.9474 14.0287 78.3131
lradius 54.9092
lwrist 65.5981
lhand -15.9076 43.7769
lfingers 7.12502
lthumb 10.2893 73.5052
rfemur -17.8534 -2.29021 22.4614
rtibia 38.1271
rfoot -22.1618 -17.125
rtoes 2.80429
lfemur -36.9815 -1.50819 -12.5986
ltibia 32.0092
lfoot -0.192878 4.69042
ltoes -4.48649
1274
root 6.50382 16.9305 -2.85278 -155.928 258.817 -557.257
lowerback -1.91286 3.01354 1.37474
upperback -0.456855 3.96792 1.48628
thorax 0.590063 1.97951 0.847737
lowerneck -6.91771 4.16465 2.64024
upperneck 18.108 6.50132 -7.66149
head 7.00228 2.5775 -2.39014
rclavicle 1.68967e-014 2.78299e-015
rhumerus 7.37949 21.6453 -72.1835
rradius 50.9632
rwrist -33.405
rhand 47.1345 15.0497
rfingers 7.12502
rthumb 67.9735 13.7614
lclavicle 1.68967e-014 2.78299e-015
lhumerus 16.4134 14.1218 78.09
lradius 55.4931
lwrist 65.6369
lhand -15.6619 43.4186
lfingers 7.12502
lthumb 10.5263 73.135
rfemur -19.3557 -1.74384 21.422
rtibia 41.1079
rfoot -22.0007 -17.4895
rtoes 5.20843
lfemur -36.4976 -1.26307 -13.7208
ltibia 31.7822
lfoot -1.47818 4.56278
ltoes -7.71605
1275
root 6.41707 16.9236 -2.75908 -159.357 259.567 -553.47
lowerback -2.24837 3.09793 0.846503
upperback -0.628534 4.09336 1.1206
thorax 0.590972 2.04304 0.784491
lowerneck -6.87578 4.15232 2.63569
upperneck 18.272 6.48483 -7.62648
head 7.04541 2.56656 -2.3812
rclavicle 3.09359e-014 1.66979e-014
rhumerus 7.35257 22.8465 -71.2171
rradius 51.6978
rwrist -35.1704
rhand 44.8745 15.1525
rfingers 7.12502
rthumb 66.291 10.2831
lclavicle 3.09359e-014 1.66979e-014
lhumerus 16.8129 14.1799 78.0381
lradius 56.1098
lwrist 65.7457
lhand -15.3423 43.1714
lfingers 7.12502
lthumb 10.8346 72.8719
rfemur -20.9467 -1.3475 20.2941
rtibia 44.0951
rfoot -21.5931 -17.7007
rtoes 8.76259
lfemur -36.0386 -0.557334 -15.1648
ltibia 31.3361
lfoot -2.56765 4.34155
ltoes -8.47005
1276
root 6.34178 16.9205 -2.67104 -163.497 260.026 -549.042
lowerback -2.53801 3.22733 0.322644
upperback -0.763677 4.28096 0.751502
thorax 0.602936 2.13741 0.716499
lowerneck -6.75196 4.00749 2.79494
upperneck 18.4388 6.27327 -7.64383
head 7.07011 2.47133 -2.43525
rclavicle -4.02663e-014 -2.06736e-014
rhumerus 6.88027 21.5566 -71.7557
rradius 52.0457
rwrist -34.4265
rhand 43.6448 14.9827
rfingers 7.12502
rthumb 65.3389 8.38028
lclavicle -4.02663e-014 -2.06736e-014
lhumerus 17.3667 13.9976 78.3883
lradius 56.5489
lwrist 66.0021
lhand -15.1462 42.8072
lfingers 7.12502
lthumb 11.0237 72.4977
rfemur -22.4503 -1.09226 19.2141
rtibia 46.9576
rfoot -20.9792 -17.983
rtoes 12.9509
lfemur -35.5009 0.406699 -16.7026
ltibia 30.717
lfoot -3.41365 3.94132
ltoes -8.23794
1277
root 6.27632 16.9193 -2.59207 -167.597 260.134 -544.761
lowerback -2.73548 3.25647 0.0214478
upperback -0.857192 4.33091 0.368309
thorax 0.6243 2.16252 0.503338
lowerneck -6.69703 3.88316 2.94586
upperneck 18.6998 6.09039 -7.63246
head 7.13782 2.38726 -2.47551
rclavicle -3.38431e-014 4.37326e-015
rhumerus 6.46501 20.0161 -72.587
rradius 52.1498
rwrist -33.0833
rhand 42.54 15.4537
rfingers 7.12502
rthumb 64.4644 7.40959
lclavicle -3.38431e-014 4.37326e-015
lhumerus 17.9797 13.9225 78.9173
lradius 56.8308
lwrist 66.0796
lhand -14.9239 42.4272
lfingers 7.12502
lthumb 11.2381 72.1062
rfemur -23.7102 -0.940375 18.3661
rtibia 49.5277
rfoot -20.357 -18.6427
rtoes 15.7196
lfemur -34.994 1.37063 -18.1188
ltibia 30.1555
lfoot -4.10805 3.18514
ltoes -8.11637
